<svg width="26" height="27" xmlns="http://www.w3.org/2000/svg"><path d="M18.1737 16.9359L26 24.7618l-1.6944 1.6944-7.826-7.8263c-1.733 1.3672-3.922 2.1836-6.3002 2.1836C4.5574 20.8135 0 16.2558 0 10.6356 0 5.0136 4.5574.4562 10.1794.4562c5.6201 0 10.1779 4.5574 10.1779 10.1794 0 2.3782-.8164 4.5673-2.1836 6.3003zm-7.9943 1.4832c4.2977 0 7.7835-3.4858 7.7835-7.7835 0-4.2992-3.4858-7.784-7.7835-7.784-4.2992 0-7.784 3.4848-7.784 7.784 0 4.2977 3.4848 7.7835 7.784 7.7835z" fill="currentColor" fill-rule="evenodd"/></svg>
